<mxfile host="app.diagrams.net" agent="Mozilla/5.0 (Windows NT 10.0; Win64; x64) AppleWebKit/537.36 (KHTML, like Gecko) Chrome/138.0.0.0 YaBrowser/25.8.0.0 Safari/537.36" version="28.2.5">
  <diagram name="Страница — 1" id="qBjz6Si-zQFtBIgJfCx6">
    <mxGraphModel dx="2509" dy="952" grid="1" gridSize="10" guides="1" tooltips="1" connect="1" arrows="1" fold="1" page="1" pageScale="1" pageWidth="827" pageHeight="1169" math="0" shadow="0">
      <root>
        <mxCell id="0" />
        <mxCell id="1" parent="0" />
        <mxCell id="wh6pQsQjk_l7OoC0hX97-1" value="Plane" style="swimlane;fontStyle=1;align=center;verticalAlign=top;childLayout=stackLayout;horizontal=1;startSize=26;horizontalStack=0;resizeParent=1;resizeParentMax=0;resizeLast=0;collapsible=1;marginBottom=0;whiteSpace=wrap;html=1;" vertex="1" parent="1">
          <mxGeometry x="320" y="414" width="420" height="410" as="geometry" />
        </mxCell>
        <mxCell id="wh6pQsQjk_l7OoC0hX97-2" value="- id : Long&lt;div&gt;- name : String&lt;/div&gt;&lt;div&gt;- company : Company&lt;/div&gt;&lt;div&gt;&lt;div&gt;- route : Route&lt;/div&gt;&lt;div&gt;- flightStatus : FlightStatus&lt;/div&gt;&lt;/div&gt;&lt;div&gt;-&amp;nbsp;&lt;span style=&quot;background-color: transparent; color: light-dark(rgb(0, 0, 0), rgb(255, 255, 255));&quot;&gt;numberPassengers: Integer&lt;/span&gt;&lt;/div&gt;&lt;div&gt;- crewList : List&amp;lt;Crew&amp;gt;&lt;/div&gt;" style="text;strokeColor=none;fillColor=none;align=left;verticalAlign=top;spacingLeft=4;spacingRight=4;overflow=hidden;rotatable=0;points=[[0,0.5],[1,0.5]];portConstraint=eastwest;whiteSpace=wrap;html=1;" vertex="1" parent="wh6pQsQjk_l7OoC0hX97-1">
          <mxGeometry y="26" width="420" height="104" as="geometry" />
        </mxCell>
        <mxCell id="wh6pQsQjk_l7OoC0hX97-3" value="" style="line;strokeWidth=1;fillColor=none;align=left;verticalAlign=middle;spacingTop=-1;spacingLeft=3;spacingRight=3;rotatable=0;labelPosition=right;points=[];portConstraint=eastwest;strokeColor=inherit;" vertex="1" parent="wh6pQsQjk_l7OoC0hX97-1">
          <mxGeometry y="130" width="420" height="8" as="geometry" />
        </mxCell>
        <mxCell id="wh6pQsQjk_l7OoC0hX97-4" value="+ Plane (id:Long, name:String, company:Company, route:Route, flightStatus:FlightStatus, numberPassengers:Integer, crewList:List&amp;lt;Crew&amp;gt;)&lt;div&gt;+ getId():Long&lt;/div&gt;&lt;div&gt;+ setId(id:Long)&lt;/div&gt;&lt;div&gt;+ getName():String&lt;/div&gt;&lt;div&gt;+ setName(name:String)&lt;/div&gt;&lt;div&gt;+ getCompany():Company&lt;/div&gt;&lt;div&gt;+ setCompany(company:Company)&lt;/div&gt;&lt;div&gt;+ getRoute():Route&lt;/div&gt;&lt;div&gt;+ setRoute(route:Route)&lt;/div&gt;&lt;div&gt;+ getFlightStatus(): FlightStatus&lt;/div&gt;&lt;div&gt;+ setFlightStatus(flightStatus:FlightStatus)&lt;/div&gt;&lt;div&gt;+ getNumberPassengers():Integer&lt;/div&gt;&lt;div&gt;+ setNumberPassengers(numberPassengers:Integer)&lt;/div&gt;&lt;div&gt;&lt;span style=&quot;background-color: transparent; color: light-dark(rgb(0, 0, 0), rgb(255, 255, 255));&quot;&gt;+ add&lt;/span&gt;&lt;span style=&quot;background-color: transparent; color: light-dark(rgb(0, 0, 0), rgb(255, 255, 255));&quot;&gt;Crew&lt;/span&gt;&lt;span style=&quot;background-color: transparent; color: light-dark(rgb(0, 0, 0), rgb(255, 255, 255));&quot;&gt;(crew:&lt;/span&gt;Crew&lt;span style=&quot;background-color: transparent; color: light-dark(rgb(0, 0, 0), rgb(255, 255, 255));&quot;&gt;)&lt;/span&gt;&lt;/div&gt;&lt;div&gt;&lt;span style=&quot;background-color: transparent; color: light-dark(rgb(0, 0, 0), rgb(255, 255, 255));&quot;&gt;+ getCrewList(): List&lt;/span&gt;&lt;/div&gt;&lt;div&gt;&lt;span style=&quot;background-color: transparent; color: light-dark(rgb(0, 0, 0), rgb(255, 255, 255));&quot;&gt;+ getCrew(id:Long): Crew&lt;/span&gt;&lt;/div&gt;&lt;div&gt;&lt;span style=&quot;background-color: transparent; color: light-dark(rgb(0, 0, 0), rgb(255, 255, 255));&quot;&gt;+ removeCrew(crew:Crew)&lt;/span&gt;&lt;/div&gt;" style="text;strokeColor=none;fillColor=none;align=left;verticalAlign=top;spacingLeft=4;spacingRight=4;overflow=hidden;rotatable=0;points=[[0,0.5],[1,0.5]];portConstraint=eastwest;whiteSpace=wrap;html=1;" vertex="1" parent="wh6pQsQjk_l7OoC0hX97-1">
          <mxGeometry y="138" width="420" height="272" as="geometry" />
        </mxCell>
        <mxCell id="wh6pQsQjk_l7OoC0hX97-47" style="edgeStyle=orthogonalEdgeStyle;rounded=0;orthogonalLoop=1;jettySize=auto;html=1;entryX=1;entryY=0.5;entryDx=0;entryDy=0;endSize=12;endArrow=block;endFill=0;" edge="1" parent="1" source="wh6pQsQjk_l7OoC0hX97-5" target="wh6pQsQjk_l7OoC0hX97-30">
          <mxGeometry relative="1" as="geometry" />
        </mxCell>
        <mxCell id="wh6pQsQjk_l7OoC0hX97-5" value="&amp;lt;abstract&amp;gt;&lt;br&gt;Employee" style="swimlane;fontStyle=1;align=center;verticalAlign=top;childLayout=stackLayout;horizontal=1;startSize=40;horizontalStack=0;resizeParent=1;resizeParentMax=0;resizeLast=0;collapsible=1;marginBottom=0;whiteSpace=wrap;html=1;" vertex="1" parent="1">
          <mxGeometry x="1140" y="824" width="350" height="266" as="geometry" />
        </mxCell>
        <mxCell id="wh6pQsQjk_l7OoC0hX97-6" value="&lt;div&gt;# name : String&lt;/div&gt;&lt;div&gt;# surname : String&lt;/div&gt;&lt;div&gt;# company: Company&lt;/div&gt;" style="text;strokeColor=none;fillColor=none;align=left;verticalAlign=top;spacingLeft=4;spacingRight=4;overflow=hidden;rotatable=0;points=[[0,0.5],[1,0.5]];portConstraint=eastwest;whiteSpace=wrap;html=1;" vertex="1" parent="wh6pQsQjk_l7OoC0hX97-5">
          <mxGeometry y="40" width="350" height="70" as="geometry" />
        </mxCell>
        <mxCell id="wh6pQsQjk_l7OoC0hX97-7" value="" style="line;strokeWidth=1;fillColor=none;align=left;verticalAlign=middle;spacingTop=-1;spacingLeft=3;spacingRight=3;rotatable=0;labelPosition=right;points=[];portConstraint=eastwest;strokeColor=inherit;" vertex="1" parent="wh6pQsQjk_l7OoC0hX97-5">
          <mxGeometry y="110" width="350" height="8" as="geometry" />
        </mxCell>
        <mxCell id="wh6pQsQjk_l7OoC0hX97-8" value="+ Crew (name:String, surname:String)&lt;div&gt;&lt;div&gt;+ getName():String&lt;/div&gt;&lt;div&gt;+ setName(name:String)&lt;/div&gt;&lt;/div&gt;&lt;div&gt;+ getSurname():String&lt;/div&gt;&lt;div&gt;+ setSurname(surname:String)&lt;/div&gt;&lt;div&gt;&lt;div&gt;+ getCompany():Company&lt;/div&gt;&lt;div&gt;+ setCompany(company:Company)&lt;/div&gt;&lt;/div&gt;" style="text;strokeColor=none;fillColor=none;align=left;verticalAlign=top;spacingLeft=4;spacingRight=4;overflow=hidden;rotatable=0;points=[[0,0.5],[1,0.5]];portConstraint=eastwest;whiteSpace=wrap;html=1;" vertex="1" parent="wh6pQsQjk_l7OoC0hX97-5">
          <mxGeometry y="118" width="350" height="148" as="geometry" />
        </mxCell>
        <mxCell id="wh6pQsQjk_l7OoC0hX97-9" value="Position" style="swimlane;fontStyle=1;align=center;verticalAlign=top;childLayout=stackLayout;horizontal=1;startSize=26;horizontalStack=0;resizeParent=1;resizeParentMax=0;resizeLast=0;collapsible=1;marginBottom=0;whiteSpace=wrap;html=1;" vertex="1" parent="1">
          <mxGeometry x="1390" y="514" width="160" height="70" as="geometry" />
        </mxCell>
        <mxCell id="wh6pQsQjk_l7OoC0hX97-10" value="PILOT&lt;div&gt;STEWARDESS&lt;/div&gt;" style="text;strokeColor=none;fillColor=none;align=left;verticalAlign=top;spacingLeft=4;spacingRight=4;overflow=hidden;rotatable=0;points=[[0,0.5],[1,0.5]];portConstraint=eastwest;whiteSpace=wrap;html=1;" vertex="1" parent="wh6pQsQjk_l7OoC0hX97-9">
          <mxGeometry y="26" width="160" height="44" as="geometry" />
        </mxCell>
        <mxCell id="wh6pQsQjk_l7OoC0hX97-13" value="FlightStatus" style="swimlane;fontStyle=1;align=center;verticalAlign=top;childLayout=stackLayout;horizontal=1;startSize=26;horizontalStack=0;resizeParent=1;resizeParentMax=0;resizeLast=0;collapsible=1;marginBottom=0;whiteSpace=wrap;html=1;" vertex="1" parent="1">
          <mxGeometry x="-50" y="550" width="160" height="120" as="geometry" />
        </mxCell>
        <mxCell id="wh6pQsQjk_l7OoC0hX97-14" value="DEPARTED&lt;br&gt;ARRIVED&lt;br&gt;RESCHEDULED&lt;br&gt;DELAYED&lt;br&gt;CANCELLED&lt;div&gt;EXPECTED&lt;br&gt;&lt;br&gt;&lt;/div&gt;" style="text;strokeColor=none;fillColor=none;align=left;verticalAlign=top;spacingLeft=4;spacingRight=4;overflow=hidden;rotatable=0;points=[[0,0.5],[1,0.5]];portConstraint=eastwest;whiteSpace=wrap;html=1;" vertex="1" parent="wh6pQsQjk_l7OoC0hX97-13">
          <mxGeometry y="26" width="160" height="94" as="geometry" />
        </mxCell>
        <mxCell id="wh6pQsQjk_l7OoC0hX97-36" style="edgeStyle=orthogonalEdgeStyle;rounded=0;orthogonalLoop=1;jettySize=auto;html=1;entryX=0;entryY=0.5;entryDx=0;entryDy=0;endArrow=diamondThin;endFill=0;startSize=20;endSize=20;" edge="1" parent="1" source="wh6pQsQjk_l7OoC0hX97-19" target="wh6pQsQjk_l7OoC0hX97-4">
          <mxGeometry relative="1" as="geometry" />
        </mxCell>
        <mxCell id="wh6pQsQjk_l7OoC0hX97-19" value="Route" style="swimlane;fontStyle=1;align=center;verticalAlign=top;childLayout=stackLayout;horizontal=1;startSize=26;horizontalStack=0;resizeParent=1;resizeParentMax=0;resizeLast=0;collapsible=1;marginBottom=0;whiteSpace=wrap;html=1;" vertex="1" parent="1">
          <mxGeometry x="110" y="940" width="340" height="300" as="geometry" />
        </mxCell>
        <mxCell id="wh6pQsQjk_l7OoC0hX97-20" value="- id : Long&lt;div&gt;- departureCity : String&lt;/div&gt;&lt;div&gt;- arrivalCity : String&lt;/div&gt;&lt;div&gt;- departureTime : LocalDateTime&lt;/div&gt;&lt;div&gt;- arrivalTime : LocalDateTime&lt;/div&gt;&lt;div&gt;&lt;br&gt;&lt;/div&gt;" style="text;strokeColor=none;fillColor=none;align=left;verticalAlign=top;spacingLeft=4;spacingRight=4;overflow=hidden;rotatable=0;points=[[0,0.5],[1,0.5]];portConstraint=eastwest;whiteSpace=wrap;html=1;" vertex="1" parent="wh6pQsQjk_l7OoC0hX97-19">
          <mxGeometry y="26" width="340" height="84" as="geometry" />
        </mxCell>
        <mxCell id="wh6pQsQjk_l7OoC0hX97-21" value="" style="line;strokeWidth=1;fillColor=none;align=left;verticalAlign=middle;spacingTop=-1;spacingLeft=3;spacingRight=3;rotatable=0;labelPosition=right;points=[];portConstraint=eastwest;strokeColor=inherit;" vertex="1" parent="wh6pQsQjk_l7OoC0hX97-19">
          <mxGeometry y="110" width="340" height="8" as="geometry" />
        </mxCell>
        <mxCell id="wh6pQsQjk_l7OoC0hX97-22" value="&lt;div&gt;+ Route (id:Long, departureCity:String, arrivalCity:String, departureTime: LocalDateTime, arrivalTime : LocalDateTime)&lt;/div&gt;&lt;div&gt;&lt;div&gt;+ getId():Long&lt;/div&gt;&lt;div&gt;+ setId(id:Long)&lt;/div&gt;&lt;/div&gt;&lt;div&gt;+ getDepartureCity():String&lt;/div&gt;&lt;div&gt;+ setDepartureCity(departureCity:String)&lt;/div&gt;&lt;div&gt;+ getArrivalCity():String&lt;/div&gt;&lt;div&gt;+ setArrivalCity(arrivalCity:String)&lt;/div&gt;&lt;div&gt;+ getDepartureTime():LocalDateTime&lt;/div&gt;&lt;div&gt;+ setDepartureTime(departureTime:LocalDateTime)&lt;/div&gt;&lt;div&gt;&lt;span style=&quot;background-color: transparent; color: light-dark(rgb(0, 0, 0), rgb(255, 255, 255));&quot;&gt;+ getArrival&lt;/span&gt;&lt;span style=&quot;background-color: transparent; color: light-dark(rgb(0, 0, 0), rgb(255, 255, 255));&quot;&gt;Time():LocalDateTime&lt;/span&gt;&lt;/div&gt;&lt;div&gt;&lt;span style=&quot;background-color: transparent; color: light-dark(rgb(0, 0, 0), rgb(255, 255, 255));&quot;&gt;+ setArrivalTime(arrivalTime:LocalDateTime)&lt;/span&gt;&lt;/div&gt;" style="text;strokeColor=none;fillColor=none;align=left;verticalAlign=top;spacingLeft=4;spacingRight=4;overflow=hidden;rotatable=0;points=[[0,0.5],[1,0.5]];portConstraint=eastwest;whiteSpace=wrap;html=1;" vertex="1" parent="wh6pQsQjk_l7OoC0hX97-19">
          <mxGeometry y="118" width="340" height="182" as="geometry" />
        </mxCell>
        <mxCell id="wh6pQsQjk_l7OoC0hX97-23" value="Company" style="swimlane;fontStyle=1;align=center;verticalAlign=top;childLayout=stackLayout;horizontal=1;startSize=26;horizontalStack=0;resizeParent=1;resizeParentMax=0;resizeLast=0;collapsible=1;marginBottom=0;whiteSpace=wrap;html=1;" vertex="1" parent="1">
          <mxGeometry x="710" y="950" width="310" height="320" as="geometry" />
        </mxCell>
        <mxCell id="wh6pQsQjk_l7OoC0hX97-24" value="- id : Long&lt;div&gt;- name : String&lt;/div&gt;&lt;div&gt;- country : String&lt;/div&gt;&lt;div&gt;- numberPlanes : Integer&lt;/div&gt;&lt;div&gt;- crewList : List&amp;lt;Crew&amp;gt;&lt;/div&gt;&lt;div&gt;&lt;br&gt;&lt;div&gt;&lt;br&gt;&lt;/div&gt;&lt;/div&gt;" style="text;strokeColor=none;fillColor=none;align=left;verticalAlign=top;spacingLeft=4;spacingRight=4;overflow=hidden;rotatable=0;points=[[0,0.5],[1,0.5]];portConstraint=eastwest;whiteSpace=wrap;html=1;" vertex="1" parent="wh6pQsQjk_l7OoC0hX97-23">
          <mxGeometry y="26" width="310" height="74" as="geometry" />
        </mxCell>
        <mxCell id="wh6pQsQjk_l7OoC0hX97-25" value="" style="line;strokeWidth=1;fillColor=none;align=left;verticalAlign=middle;spacingTop=-1;spacingLeft=3;spacingRight=3;rotatable=0;labelPosition=right;points=[];portConstraint=eastwest;strokeColor=inherit;" vertex="1" parent="wh6pQsQjk_l7OoC0hX97-23">
          <mxGeometry y="100" width="310" height="8" as="geometry" />
        </mxCell>
        <mxCell id="wh6pQsQjk_l7OoC0hX97-26" value="+ Company (id:Long, name:String, country:String, numberPlanes:Integer)&lt;div&gt;+ getId():Integer&lt;/div&gt;&lt;div&gt;+ setId(id:Integer)&lt;/div&gt;&lt;div&gt;+ getName():String&lt;/div&gt;&lt;div&gt;+ setName(name:String)&lt;/div&gt;&lt;div&gt;+ getCountry():String&lt;/div&gt;&lt;div&gt;+ setCountry(country:String)&lt;/div&gt;&lt;div&gt;+ getNumberPlanes():Integer&lt;/div&gt;&lt;div&gt;+ setNumberPlanes(numberPlanes:Integer)&lt;/div&gt;&lt;div&gt;+ getCrewList():List&lt;/div&gt;&lt;div&gt;+ addCrew(crew:Crew)&lt;/div&gt;&lt;div&gt;+ getCrew(id:Long)&lt;/div&gt;&lt;div&gt;+ removeCrew(crew:Crew)&lt;/div&gt;" style="text;strokeColor=none;fillColor=none;align=left;verticalAlign=top;spacingLeft=4;spacingRight=4;overflow=hidden;rotatable=0;points=[[0,0.5],[1,0.5]];portConstraint=eastwest;whiteSpace=wrap;html=1;" vertex="1" parent="wh6pQsQjk_l7OoC0hX97-23">
          <mxGeometry y="108" width="310" height="212" as="geometry" />
        </mxCell>
        <mxCell id="wh6pQsQjk_l7OoC0hX97-27" value="Crew" style="swimlane;fontStyle=1;align=center;verticalAlign=top;childLayout=stackLayout;horizontal=1;startSize=26;horizontalStack=0;resizeParent=1;resizeParentMax=0;resizeLast=0;collapsible=1;marginBottom=0;whiteSpace=wrap;html=1;" vertex="1" parent="1">
          <mxGeometry x="840" y="474" width="300" height="180" as="geometry" />
        </mxCell>
        <mxCell id="wh6pQsQjk_l7OoC0hX97-28" value="&lt;div&gt;- id: Long&lt;/div&gt;- position : Position" style="text;strokeColor=none;fillColor=none;align=left;verticalAlign=top;spacingLeft=4;spacingRight=4;overflow=hidden;rotatable=0;points=[[0,0.5],[1,0.5]];portConstraint=eastwest;whiteSpace=wrap;html=1;" vertex="1" parent="wh6pQsQjk_l7OoC0hX97-27">
          <mxGeometry y="26" width="300" height="44" as="geometry" />
        </mxCell>
        <mxCell id="wh6pQsQjk_l7OoC0hX97-29" value="" style="line;strokeWidth=1;fillColor=none;align=left;verticalAlign=middle;spacingTop=-1;spacingLeft=3;spacingRight=3;rotatable=0;labelPosition=right;points=[];portConstraint=eastwest;strokeColor=inherit;" vertex="1" parent="wh6pQsQjk_l7OoC0hX97-27">
          <mxGeometry y="70" width="300" height="8" as="geometry" />
        </mxCell>
        <mxCell id="wh6pQsQjk_l7OoC0hX97-30" value="+ Crew ( id:Long, name:String, surname:String, company:Company)&lt;div&gt;&lt;div&gt;+ getId():Long&lt;/div&gt;&lt;div&gt;+ setId(id:Long)&lt;/div&gt;&lt;div&gt;+ getPosition():Position&lt;/div&gt;&lt;div&gt;+ setPosition(position:Position)&amp;nbsp;&lt;/div&gt;&lt;/div&gt;" style="text;strokeColor=none;fillColor=none;align=left;verticalAlign=top;spacingLeft=4;spacingRight=4;overflow=hidden;rotatable=0;points=[[0,0.5],[1,0.5]];portConstraint=eastwest;whiteSpace=wrap;html=1;" vertex="1" parent="wh6pQsQjk_l7OoC0hX97-27">
          <mxGeometry y="78" width="300" height="102" as="geometry" />
        </mxCell>
        <mxCell id="wh6pQsQjk_l7OoC0hX97-33" style="edgeStyle=orthogonalEdgeStyle;rounded=0;orthogonalLoop=1;jettySize=auto;html=1;strokeWidth=1;endSize=13;" edge="1" parent="1" source="wh6pQsQjk_l7OoC0hX97-4" target="wh6pQsQjk_l7OoC0hX97-23">
          <mxGeometry relative="1" as="geometry">
            <Array as="points">
              <mxPoint x="800" y="688" />
            </Array>
          </mxGeometry>
        </mxCell>
        <mxCell id="wh6pQsQjk_l7OoC0hX97-34" value="1" style="text;html=1;align=center;verticalAlign=middle;resizable=0;points=[];autosize=1;strokeColor=none;fillColor=none;fontSize=17;" vertex="1" parent="1">
          <mxGeometry x="810" y="920" width="30" height="30" as="geometry" />
        </mxCell>
        <mxCell id="wh6pQsQjk_l7OoC0hX97-35" value="1" style="text;html=1;align=center;verticalAlign=middle;resizable=0;points=[];autosize=1;strokeColor=none;fillColor=none;fontSize=17;" vertex="1" parent="1">
          <mxGeometry x="740" y="650" width="30" height="30" as="geometry" />
        </mxCell>
        <mxCell id="wh6pQsQjk_l7OoC0hX97-38" value="1" style="text;html=1;align=center;verticalAlign=middle;resizable=0;points=[];autosize=1;strokeColor=none;fillColor=none;fontSize=17;" vertex="1" parent="1">
          <mxGeometry x="250" y="908" width="30" height="30" as="geometry" />
        </mxCell>
        <mxCell id="wh6pQsQjk_l7OoC0hX97-39" value="1" style="text;html=1;align=center;verticalAlign=middle;resizable=0;points=[];autosize=1;strokeColor=none;fillColor=none;fontSize=17;" vertex="1" parent="1">
          <mxGeometry x="290" y="650" width="30" height="30" as="geometry" />
        </mxCell>
        <mxCell id="wh6pQsQjk_l7OoC0hX97-40" style="edgeStyle=orthogonalEdgeStyle;rounded=0;orthogonalLoop=1;jettySize=auto;html=1;entryX=0;entryY=0.5;entryDx=0;entryDy=0;endArrow=none;endFill=0;" edge="1" parent="1" source="wh6pQsQjk_l7OoC0hX97-14" target="wh6pQsQjk_l7OoC0hX97-2">
          <mxGeometry relative="1" as="geometry" />
        </mxCell>
        <mxCell id="wh6pQsQjk_l7OoC0hX97-41" style="edgeStyle=orthogonalEdgeStyle;rounded=0;orthogonalLoop=1;jettySize=auto;html=1;entryX=0;entryY=0.5;entryDx=0;entryDy=0;startArrow=diamondThin;startFill=1;endArrow=none;endFill=0;startSize=19;" edge="1" parent="1" source="wh6pQsQjk_l7OoC0hX97-4" target="wh6pQsQjk_l7OoC0hX97-30">
          <mxGeometry relative="1" as="geometry">
            <Array as="points">
              <mxPoint x="760" y="623" />
              <mxPoint x="760" y="623" />
            </Array>
          </mxGeometry>
        </mxCell>
        <mxCell id="wh6pQsQjk_l7OoC0hX97-42" value="1" style="text;html=1;align=center;verticalAlign=middle;resizable=0;points=[];autosize=1;strokeColor=none;fillColor=none;fontSize=17;" vertex="1" parent="1">
          <mxGeometry x="735" y="588" width="30" height="30" as="geometry" />
        </mxCell>
        <mxCell id="wh6pQsQjk_l7OoC0hX97-43" value="n" style="text;html=1;align=center;verticalAlign=middle;resizable=0;points=[];autosize=1;strokeColor=none;fillColor=none;fontSize=17;" vertex="1" parent="1">
          <mxGeometry x="815" y="588" width="30" height="30" as="geometry" />
        </mxCell>
        <mxCell id="wh6pQsQjk_l7OoC0hX97-44" style="edgeStyle=orthogonalEdgeStyle;rounded=0;orthogonalLoop=1;jettySize=auto;html=1;entryX=0.75;entryY=0;entryDx=0;entryDy=0;endSize=14;" edge="1" parent="1" source="wh6pQsQjk_l7OoC0hX97-30" target="wh6pQsQjk_l7OoC0hX97-23">
          <mxGeometry relative="1" as="geometry">
            <Array as="points">
              <mxPoint x="943" y="814" />
            </Array>
          </mxGeometry>
        </mxCell>
        <mxCell id="wh6pQsQjk_l7OoC0hX97-45" value="1" style="text;html=1;align=center;verticalAlign=middle;resizable=0;points=[];autosize=1;strokeColor=none;fillColor=none;fontSize=17;" vertex="1" parent="1">
          <mxGeometry x="945" y="920" width="30" height="30" as="geometry" />
        </mxCell>
        <mxCell id="wh6pQsQjk_l7OoC0hX97-46" value="n" style="text;html=1;align=center;verticalAlign=middle;resizable=0;points=[];autosize=1;strokeColor=none;fillColor=none;fontSize=17;" vertex="1" parent="1">
          <mxGeometry x="945" y="658" width="30" height="30" as="geometry" />
        </mxCell>
        <mxCell id="wh6pQsQjk_l7OoC0hX97-48" style="edgeStyle=orthogonalEdgeStyle;rounded=0;orthogonalLoop=1;jettySize=auto;html=1;endArrow=none;endFill=0;" edge="1" parent="1" source="wh6pQsQjk_l7OoC0hX97-10">
          <mxGeometry relative="1" as="geometry">
            <mxPoint x="1140" y="550" as="targetPoint" />
            <Array as="points">
              <mxPoint x="1390" y="554" />
            </Array>
          </mxGeometry>
        </mxCell>
      </root>
    </mxGraphModel>
  </diagram>
</mxfile>
